<svg width="242" height="45" viewBox="0 0 242 45" fill="none" xmlns="http://www.w3.org/2000/svg">
<path d="M81.9334 18.6622C81.9334 21.5217 79.8053 23.7793 76.9171 23.7793C75.397 23.7793 74.0289 23.0268 73.4208 21.9732V25.5853H71.4447V21.9732C70.6847 23.0268 69.4686 23.7793 67.9485 23.7793C64.9083 23.7793 62.7801 21.5217 62.7801 18.6622C62.7801 15.8027 64.9083 13.3947 67.9485 13.3947C69.4686 13.3947 70.8367 14.1472 71.4447 15.3512V12.9431H73.4208V15.2007C74.1809 14.1472 75.397 13.3947 76.9171 13.3947C79.8053 13.3947 81.9334 15.8027 81.9334 18.6622ZM71.2927 18.6622C71.2927 16.7057 69.7726 15.3512 67.9485 15.3512C66.1244 15.3512 64.6043 16.7057 64.6043 18.6622C64.6043 20.6187 66.1244 21.9732 67.9485 21.9732C69.9246 21.9732 71.2927 20.6187 71.2927 18.6622ZM79.9573 18.6622C79.9573 16.7057 78.4372 15.3512 76.6131 15.3512C74.7889 15.3512 73.2688 16.7057 73.2688 18.6622C73.2688 20.6187 74.7889 21.9732 76.6131 21.9732C78.4372 21.9732 79.9573 20.6187 79.9573 18.6622Z" fill="#151918"/>
<path d="M96.6784 25.5853V16.7057L89.9899 25.5853H88.7739V12.9431H90.75V21.8227L97.4384 12.9431H98.6545V25.5853H96.6784Z" fill="#151918"/>
<path d="M114.16 25.5853V20.1672H108.231V25.5853H106.255V12.9431H108.231V18.2107H114.16V12.9431H116.136V25.5853H114.16Z" fill="#151918"/>
<path d="M124.648 25.5853H122.52L127.84 12.9431H129.057L134.225 25.5853H132.097L130.881 22.7257H125.864L124.648 25.5853ZM126.624 20.9197H130.273L128.449 16.5552L126.624 20.9197Z" fill="#151918"/>
<path d="M148.514 25.5853V20.1672H142.585V25.5853H140.609V12.9431H142.585V18.2107H148.514V12.9431H150.49V25.5853H148.514Z" fill="#151918"/>
<path d="M168.427 14.8997L167.211 16.1037C166.299 15.2007 165.083 14.7492 163.715 14.7492C161.131 14.7492 159.154 16.7057 159.154 19.4147C159.154 22.1237 161.131 24.0803 163.715 24.0803C165.083 24.0803 166.299 23.6288 167.211 22.7257L168.427 23.9298C167.211 25.2843 165.539 26.0368 163.563 26.0368C159.915 26.0368 157.026 23.1772 157.026 19.5652C157.026 15.9532 159.915 13.0936 163.563 13.0936C165.539 12.7926 167.211 13.6956 168.427 14.8997Z" fill="#151918"/>
<path d="M187.58 19.2642C187.58 22.8763 184.692 25.7358 181.044 25.7358C177.396 25.7358 174.508 22.8763 174.508 19.2642C174.508 15.6522 177.396 12.7926 181.044 12.7926C184.692 12.7926 187.58 15.8027 187.58 19.2642ZM176.636 19.2642C176.636 21.9732 178.612 23.9298 181.196 23.9298C183.78 23.9298 185.756 21.9732 185.756 19.2642C185.756 16.5552 183.78 14.5987 181.196 14.5987C178.612 14.7492 176.636 16.5552 176.636 19.2642Z" fill="#151918"/>
<path d="M199.437 12.9431C203.085 12.9431 203.693 14.8997 203.693 16.2542C203.693 17.6087 203.085 18.5117 201.869 18.9632C203.389 19.2642 204.301 20.4682 204.301 21.9732C204.301 23.9298 203.085 25.5853 199.741 25.5853H194.725V12.9431H199.437ZM196.701 18.2107H199.741C201.565 18.2107 201.869 17.3077 201.869 16.5552C201.869 15.8027 201.565 14.8997 199.741 14.8997H196.701V18.2107ZM196.701 23.7793H200.197C201.869 23.7793 202.477 22.8763 202.477 21.8227C202.477 20.7692 201.869 19.8662 200.197 19.8662H196.701V23.7793Z" fill="#151918"/>
<path d="M216.462 17.7592C219.351 17.7592 220.719 19.2642 220.719 21.6722C220.719 24.0803 219.351 25.5853 216.462 25.5853H211.142V12.9431H213.118V17.7592H216.462ZM216.614 23.7793C218.438 23.7793 219.046 23.0268 219.046 21.6722C219.046 20.3177 218.286 19.5652 216.614 19.5652H213.27V23.6288H216.614V23.7793ZM222.391 25.5853V12.9431H224.367V25.5853H222.391Z" fill="#151918"/>
<path d="M240.024 25.5853V16.7057L233.335 25.5853H232.119V12.9431H234.095V21.8227L240.784 12.9431H242V25.5853H240.024ZM234.248 9.48161H235.464C235.464 10.2341 236.072 10.6856 236.984 10.6856C237.744 10.6856 238.504 10.0836 238.504 9.48161H239.72C239.72 10.9866 238.504 12.0401 236.984 12.0401C235.464 12.0401 234.248 10.9866 234.248 9.48161Z" fill="#151918"/>
<path d="M64.6042 45H62.4761L67.7964 32.3579H69.0125L74.1809 45H72.0527L70.8366 42.1405H65.8203L64.6042 45ZM66.4284 40.3344H70.0766L68.2525 35.9699L66.4284 40.3344Z" fill="#151918"/>
<path d="M104.279 32.3579C107.927 32.3579 108.535 34.3144 108.535 35.6689C108.535 37.0234 107.927 37.9264 106.711 38.3779C108.231 38.6789 109.143 39.8829 109.143 41.388C109.143 43.3445 107.927 45 104.583 45H99.5666V32.3579H104.279ZM101.543 37.6254H104.583C106.407 37.6254 106.711 36.7224 106.711 35.9699C106.711 35.2174 106.407 34.3144 104.583 34.3144H101.543V37.6254ZM101.543 43.194H105.039C106.711 43.194 107.319 42.291 107.319 41.2375C107.319 40.1839 106.711 39.2809 105.039 39.2809H101.543V43.194Z" fill="#151918"/>
<path d="M128.296 38.5284C128.296 42.1405 125.408 45 121.76 45C118.112 45 115.224 42.1405 115.224 38.5284C115.224 34.9164 118.112 32.0569 121.76 32.0569C125.256 32.0569 128.296 34.9164 128.296 38.5284ZM117.2 38.5284C117.2 41.2375 119.176 43.194 121.76 43.194C124.344 43.194 126.32 41.2375 126.32 38.5284C126.32 35.8194 124.344 33.8629 121.76 33.8629C119.176 33.8629 117.2 35.8194 117.2 38.5284Z" fill="#151918"/>
<path d="M141.065 40.7859C140.305 39.7324 140.001 39.2809 138.937 39.2809H137.265V44.699H135.289V32.0569H137.265V37.3244H138.785C139.849 37.3244 140.153 36.8729 140.913 35.8194L143.345 31.9064H145.626L142.737 36.4214C141.977 37.4749 141.521 37.9264 141.065 38.0769C141.673 38.2274 141.977 38.6789 142.737 39.8829L145.778 44.5485H143.497L141.065 40.7859Z" fill="#151918"/>
<path d="M153.682 45H151.554L156.874 32.3579H158.09L163.259 45H161.131L159.915 42.1405H154.898L153.682 45ZM155.506 40.3344H159.155L157.33 35.9699L155.506 40.3344Z" fill="#151918"/>
<path d="M172.987 45H171.011V34.1639H167.363V32.3579H176.788V34.1639H172.987V45Z" fill="#151918"/>
<path d="M71.2927 2.85953C71.2927 4.36455 70.0766 5.56857 68.5565 5.56857C67.1884 5.56857 65.9723 4.51505 65.8203 3.16053H64.7562V5.41806H63.9962V0.150498H64.7562V2.40802H65.8203C65.9723 1.05351 67.0364 0.150498 68.4045 0.150498C70.0766 0.150498 71.2927 1.35452 71.2927 2.85953ZM70.5326 2.85953C70.5326 1.65552 69.6206 0.903007 68.5565 0.903007C67.4924 0.903007 66.5804 1.80602 66.5804 2.85953C66.5804 4.06355 67.4924 4.81606 68.5565 4.81606C69.6206 4.81606 70.5326 4.06355 70.5326 2.85953Z" fill="#151918"/>
<path d="M80.8693 2.85953C80.8693 4.36455 79.6532 5.56857 78.2851 5.56857C77.373 5.56857 76.613 5.11706 76.309 4.36455V7.37458H75.5489V0.150497H76.157V1.35452C76.613 0.602007 77.373 0.150497 78.2851 0.150497C79.6532 0.150497 80.8693 1.35452 80.8693 2.85953ZM76.157 2.85953C76.157 4.06355 77.069 4.81606 78.1331 4.81606C79.1972 4.81606 80.1092 3.91304 80.1092 2.85953C80.1092 1.65552 79.1972 0.903006 78.1331 0.903006C77.069 0.903006 76.157 1.80602 76.157 2.85953Z" fill="#151918"/>
<path d="M89.0778 5.56857V1.65552L85.5816 5.56857H85.1256V0.30101H85.8856V4.21405L89.3818 0.30101H89.8379V5.56857H89.0778Z" fill="#151918"/>
<path d="M107.623 5.56857V1.65552L104.127 5.56857H103.671V0.30101H104.431V4.21405L107.927 0.30101H108.383V5.56857H107.623Z" fill="#151918"/>
<path d="M116.896 5.56857V3.46154C116.592 4.06355 115.832 4.36455 115.072 4.36455C113.247 4.36455 112.639 3.31103 112.639 1.65552V0.150499H113.399V1.50502C113.399 2.70903 113.855 3.46154 115.072 3.46154C116.44 3.46154 116.744 2.55853 116.744 1.65552V0H117.504V5.26756H116.896V5.56857Z" fill="#151918"/>
<path d="M126.928 1.65552C127.08 2.10702 127.08 2.70903 127.08 3.01003H122.672C122.672 4.21405 123.584 4.81606 124.648 4.81606C125.408 4.81606 126.016 4.66556 126.472 4.21405L126.928 4.66555C126.32 5.11705 125.56 5.41806 124.648 5.41806C122.976 5.41806 121.912 4.36455 121.912 2.70903C121.912 1.20402 122.976 0 124.648 0C125.712 0.150502 126.624 0.752506 126.928 1.65552ZM122.672 2.55854H126.32C126.32 2.40803 126.32 2.10703 126.168 1.95653C125.864 1.35452 125.256 0.903008 124.496 0.903008C123.432 0.903008 122.672 1.65553 122.672 2.55854Z" fill="#151918"/>
<path d="M135.745 1.20402L135.289 1.65552C134.833 1.20401 134.225 0.903008 133.617 0.903008C132.553 0.903008 131.641 1.80602 131.641 2.85953C131.641 4.06355 132.553 4.81606 133.617 4.81606C134.225 4.81606 134.833 4.51506 135.289 4.06355L135.745 4.51505C135.289 5.11706 134.529 5.41806 133.617 5.41806C132.097 5.41806 130.881 4.21405 130.881 2.70903C130.881 1.20402 132.097 0 133.617 0C134.529 0.150502 135.289 0.602011 135.745 1.20402Z" fill="#151918"/>
<path d="M142.889 4.21405C142.433 3.46154 142.281 3.16053 141.369 3.16053H140.609V5.56857H139.849V0.30101H140.609V2.40802H141.369C142.129 2.40802 142.281 2.10703 142.889 1.35452L143.649 0.150499H144.562L143.497 1.65552C143.193 2.10702 142.889 2.55853 142.585 2.70903C143.041 2.85954 143.345 3.16053 143.649 3.76254L144.714 5.41806H143.801L142.889 4.21405Z" fill="#151918"/>
<path d="M152.922 5.56857V4.36455C152.466 5.11706 151.706 5.56857 150.794 5.56857C149.274 5.56857 148.21 4.36455 148.21 2.85953C148.21 1.35452 149.426 0.150499 150.794 0.150499C151.706 0.150499 152.618 0.602009 152.922 1.35452V0.150499H153.53V5.41806H152.922V5.56857ZM152.77 2.85953C152.77 1.65552 151.858 0.903008 150.794 0.903008C149.73 0.903008 148.818 1.80602 148.818 2.85953C148.818 4.06355 149.73 4.81606 150.794 4.81606C151.858 4.81606 152.77 4.06355 152.77 2.85953Z" fill="#151918"/>
<path d="M161.587 5.56857V3.91304H160.219C159.459 3.91304 159.307 4.21405 158.851 4.96656L158.394 5.71907H157.482L158.09 4.81606C158.394 4.36456 158.546 4.06354 159.003 3.76254C158.09 3.61204 157.634 2.85953 157.634 2.10703C157.634 1.20402 158.242 0.30101 159.763 0.30101H162.347V5.56857H161.587ZM159.763 1.05352C158.851 1.05352 158.394 1.50502 158.394 2.10703C158.394 2.70903 158.851 3.16053 159.763 3.16053H161.587V1.05352H159.763Z" fill="#151918"/>
<path d="M175.572 4.21405C175.116 3.46154 174.964 3.16053 174.052 3.16053H173.291V5.56857H172.531V0.30101H173.291V2.40802H174.052C174.812 2.40802 174.964 2.10703 175.572 1.35452L176.332 0.150499H177.244L176.18 1.65552C175.876 2.10702 175.572 2.55853 175.268 2.70903C175.724 2.85954 176.028 3.16053 176.332 3.76254L177.396 5.41806H176.484L175.572 4.21405Z" fill="#151918"/>
<path d="M186.212 2.85953C186.212 4.36455 184.996 5.56857 183.476 5.56857C181.956 5.56857 180.74 4.36455 180.74 2.85953C180.74 1.35452 181.956 0.150499 183.476 0.150499C184.996 0.150499 186.212 1.35452 186.212 2.85953ZM181.652 2.85953C181.652 4.06355 182.564 4.81606 183.628 4.81606C184.692 4.81606 185.604 4.06355 185.604 2.85953C185.604 1.65552 184.692 0.903008 183.628 0.903008C182.564 0.903008 181.652 1.80602 181.652 2.85953Z" fill="#151918"/>
<path d="M195.029 5.56857V1.65551L193.053 3.91304L191.077 1.65551V5.56857H190.317V0.301008H190.773L193.053 2.85953L195.333 0.301008H195.789V5.56857H195.029Z" fill="#151918"/>
<path d="M204.302 5.56857V1.05352H200.957V5.56857H200.197V0.301008H205.062V5.56857H204.302Z" fill="#151918"/>
<path d="M214.03 5.56857V4.36455C213.574 5.11706 212.814 5.56857 211.902 5.56857C210.382 5.56857 209.318 4.36455 209.318 2.85953C209.318 1.35452 210.534 0.150497 211.902 0.150497C212.814 0.150497 213.726 0.602007 214.03 1.35452V0.150497H214.638V5.41806H214.03V5.56857ZM213.878 2.85953C213.878 1.65552 212.966 0.903006 211.902 0.903006C210.838 0.903006 209.926 1.80602 209.926 2.85953C209.926 4.06355 210.838 4.81606 211.902 4.81606C212.966 4.81606 213.878 4.06355 213.878 2.85953Z" fill="#151918"/>
<path d="M223.151 5.56857V3.31104H219.959V5.56857H219.198V0.301008H219.959V2.55853H223.151V0.301008H223.911V5.56857H223.151Z" fill="#151918"/>
<path d="M232.423 5.56857V1.65552L228.927 5.56857H228.471V0.30101H229.231V4.21405L232.727 0.30101H233.183V5.56857H232.423Z" fill="#151918"/>
<path d="M241.088 5.56857V3.91304H239.72C238.96 3.91304 238.808 4.21405 238.352 4.96656L237.896 5.71907H236.984L237.592 4.81606C237.896 4.36456 238.048 4.06354 238.504 3.76254C237.592 3.61204 237.136 2.85953 237.136 2.10703C237.136 1.20402 237.744 0.30101 239.264 0.30101H241.696V5.56857H241.088ZM239.264 1.05352C238.352 1.05352 237.896 1.50502 237.896 2.10703C237.896 2.70903 238.352 3.16053 239.264 3.16053H241.088V1.05352H239.264Z" fill="#151918"/>
<path d="M92.8781 45V43.194H91.206L86.7977 32.3579H85.5816L81.0213 43.194H79.3492V45H92.8781ZM86.1897 35.9699L89.0779 43.194H83.1495L86.1897 35.9699Z" fill="#151918"/>
<path d="M99.7186 5.56857V4.81606H98.9585L96.8304 0.30101H96.3743L94.2462 4.81606H93.4862V5.56857H99.7186ZM96.6784 1.35452L98.1985 4.66555H95.1583L96.6784 1.35452Z" fill="#151918"/>
<path d="M13.9849 21.6722C9.57659 21.5217 5.92834 19.5652 5.92834 14.8997C5.92834 10.3846 9.57659 8.27759 13.9849 8.12709V6.47157H17.3291V8.12709C21.7374 8.27759 25.3856 10.0836 25.3856 14.8997C25.3856 19.7157 21.5854 21.5217 17.3291 21.6722V23.3278H13.9849V21.6722ZM13.9849 18.6622V11.2876C11.7047 11.2876 9.57659 12.0401 9.57659 14.8997C9.57659 17.7592 11.8567 18.5117 13.9849 18.6622ZM17.3291 11.2876V18.6622C19.6093 18.5117 21.7374 17.7592 21.7374 15.0502C21.7374 12.1906 19.6093 11.4381 17.3291 11.2876Z" fill="#D35147"/>
<path d="M26.4498 34.9164L25.0817 37.6254H21.2814V37.1739L29.0339 20.7692H30.706L38.4585 37.1739V37.6254H34.6583L33.2902 34.9164H26.4498ZM27.6658 31.9064H32.3781L30.098 26.3378L27.6658 31.9064Z" fill="#5464A9"/>
<path d="M0 7.67558V20.0167C0 22.2743 1.06407 24.3813 2.88819 25.7358V7.82609C2.88819 5.26757 5.01633 3.31103 7.6005 3.16053H25.5377C24.1696 1.50501 22.1935 0.30101 19.7613 0.30101H7.29649C3.19222 0.451512 0 3.61204 0 7.67558Z" fill="#D24B43"/>
<path d="M44.691 37.4749V25.1338C44.691 22.8763 43.6269 20.7692 41.8028 19.4147V37.1739C41.8028 39.7324 39.6746 41.689 37.0905 41.8395H19.1533C20.5213 43.495 22.4975 44.699 24.9296 44.699H37.3945C41.4987 44.699 44.691 41.5385 44.691 37.4749Z" fill="#5464A9"/>
</svg>
